# Aspose.3D Wavefront OBJ Exporter
# Copyright 2004-2022 Aspose Pty Ltd.
# File created: 04/11/2022 07:01:36


#
# object obj_17103299
#

v -0.05000000074505806 0.00835078954696655 0.00374255375936627
v -0.05000000074505806 0.00999999977648258 0.0044999998062849
v -0.05000000074505806 0.00971025787293911 0.00177302444353699
v -0.05000000074505806 0.00999999977648258 0.00059205497382208
v -0.05000000074505806 0.00993301253765821 0.00474999984726309
v -0.05000000074505806 0.00975000020116567 0.00493301264941692
v -0.05000000074505806 0.00949999969452619 0.00499999988824129
v -0.05000000074505806 0.00623175501823425 0.0048547089099884
v -0.05000000074505806 0.00503517687320709 0.00499999988824129
v -0.05000000074505806 0.00503517687320709 -0.00499999988824129
v -0.05000000074505806 0.00735879270359873 -0.00442728027701377
v -0.05000000074505806 0.00949999969452619 -0.00499999988824129
v -0.05000000074505806 0.00915009621530771 -0.00284032383933663
v -0.05000000074505806 0.00975000020116567 -0.00493301264941692
v -0.05000000074505806 0.00993301253765821 -0.00474999984726309
v -0.05000000074505806 0.00999999977648258 -0.0044999998062849
v -0.05000000074505806 0.00999872107058763 -0.00060268340166658
v -0.05000000074505806 0.00999999977648258 -0.00059205497382208
v 0.05000000074505806 0 -0.0044999998062849
v 0.05000000074505806 0.00999999977648258 -0.0044999998062849
v 0.05000000074505806 0 0.0044999998062849
v 0.05000000074505806 0.00999999977648258 0.0044999998062849
v 0.05000000074505806 0.00975000020116567 -0.00493301264941692
v 0.05000000074505806 0.00993301253765821 -0.00474999984726309
v 0.05000000074505806 0.00949999969452619 -0.00499999988824129
v 0.05000000074505806 0.00050000002374872 -0.00499999988824129
v 0.05000000074505806 0.0002500000118743628 -0.00493301264941692
v 0.05000000074505806 6.698729703202844E-05 -0.00474999984726309
v 0.05000000074505806 0.0002500000118743628 0.00493301264941692
v 0.05000000074505806 6.698729703202844E-05 0.00474999984726309
v 0.05000000074505806 0.00050000002374872 0.00499999988824129
v 0.05000000074505806 0.00949999969452619 0.00499999988824129
v 0.05000000074505806 0.00975000020116567 0.00493301264941692
v 0.05000000074505806 0.00993301253765821 0.00474999984726309
v -0.05000000074505806 0.00050000002374872 -0.00499999988824129
v -0.05000000074505806 0.0027115608099848 -0.00442728027701377
v -0.05000000074505806 0.0002500000118743628 -0.00493301264941692
v -0.05000000074505806 6.698729703202844E-05 -0.00474999984726309
v -0.05000000074505806 0 -0.0044999998062849
v -0.05000000074505806 6.698729703202844E-05 0.00474999984726309
v -0.05000000074505806 0.0002500000118743628 0.00493301264941692
v -0.05000000074505806 0.00050000002374872 0.00499999988824129
v -0.05000000074505806 0.00092025729827582 -0.00284032383933663
v -0.05000000074505806 0 0.0044999998062849
v -0.05000000074505806 0.00171956338454037 0.00374255375936627
v -0.05000000074505806 0.00383859826251864 0.0048547089099884
v -0.05000000074505806 7.163227564888075E-05 -0.00060268340166658
v -0.05000000074505806 0.0003600954369176179 0.00177302444353699
v 0.05000000074505806 4.336808689942018E-19 -0.0044999998062849
v -0.05000000074505806 4.336808689942018E-19 -0.0044999998062849
v -0.05000000074505806 4.336808689942018E-19 0.0044999998062849
v 0.05000000074505806 4.336808689942018E-19 0.0044999998062849
v -0.05999999865889549 0.00623175501823425 0.0048547089099884
v -0.05999999865889549 0.00503517687320709 0.00499999988824129
v -0.05999999865889549 0.00835078954696655 0.00374255375936627
v -0.05999999865889549 0.00971025787293911 0.00177302444353699
v -0.05999999865889549 0.00999872107058763 -0.00060268340166658
v -0.05000000074505806 0.01003517676144838 -6.330040996592672E-20
v -0.05999999865889549 0.00383859826251864 0.0048547089099884
v -0.05999999865889549 0.00171956338454037 0.00374255375936627
v -0.05999999865889549 0.0003600954369176179 0.00177302444353699
v -0.05999999865889549 7.163227564888075E-05 -0.00060268340166658
v -0.05999999865889549 0.00092025729827582 -0.00284032383933663
v -0.05999999865889549 0.0027115608099848 -0.00442728027701377
v -0.05999999865889549 0.00503517687320709 -0.00499999988824129
v -0.05999999865889549 0.00735879270359873 -0.00442728027701377
v -0.05999999865889549 0.00915009621530771 -0.00284032383933663
v -0.05999999865889549 0.00749999983236193 -0.00337844993919134
v -0.05999999865889549 0.00749999983236193 0.00337844993919134
v -0.05999999865889549 0.00249999994412064 0.00337844993919134
v -0.05999999865889549 0.00249999994412064 -0.00337844993919134
v -0.05000000074505806 0.01003517676144838 -5.612000145023539E-19
v -0.06217280030250549 0.00249999994412064 -0.00550686148926615
v -0.06217280030250549 0.00749999983236193 -0.00550686148926615
v -0.06523701548576355 0.00249999994412064 -0.00702376617118716
v -0.06523701548576355 0.00749999983236193 -0.00702376617118716
v -0.06885239481925964 0.00249999994412064 -0.00776072032749652
v -0.06885239481925964 0.00749999983236193 -0.00776072032749652
v -0.07261745631694794 0.00249999994412064 -0.00763588864356279
v -0.07261745631694794 0.00749999983236193 -0.00763588864356279
v -0.07611411064863205 0.00249999994412064 -0.00666313339024782
v -0.07611411064863205 0.00749999983236193 -0.00666313339024782
v -0.07895408570766449 0.00249999994412064 -0.00495047401636838
v -0.07895408570766449 0.00749999983236193 -0.00495047401636838
v -0.08082200586795807 0.00249999994412064 -0.00268809124827384
v -0.08082200586795807 0.00749999983236193 -0.00268809124827384
v -0.08151045441627502 0.00249999994412064 -0.00012721074745059013
v -0.08151045441627502 0.00749999983236193 -0.00012721074745059013
v -0.08094298839569092 0.00249999994412064 0.00244779582135379
v -0.08094298839569092 0.00749999983236193 0.00244779582135379
v -0.07918260246515274 0.00249999994412064 0.00475098798051476
v -0.07918260246515274 0.00749999983236193 0.00475098798051476
v -0.07642479985952377 0.00249999994412064 0.00652660895138979
v -0.07642479985952377 0.00749999983236193 0.00652660895138979
v -0.07297580689191818 0.00249999994412064 0.00757748587056994
v -0.07297580689191818 0.00749999983236193 0.00757748587056994
v -0.06921862065792084 0.00249999994412064 0.00778692448511719
v -0.06921862065792084 0.00749999983236193 0.00778692448511719
v -0.06557045131921768 0.00249999994412064 0.00713166734203696
v -0.06557045131921768 0.00749999983236193 0.00713166734203696
v -0.06243641301989555 0.00249999994412064 0.00568447820842266
v -0.06243641301989555 0.00749999983236193 0.00568447820842266
v -0.06016452237963676 0.00249999994412064 0.00360605842433869
v -0.06016452237963676 0.00749999983236193 0.00360605842433869
# 104 vertices

vn -1 0 0
vn 1 0 0
vn 0 0 -1
vn 0 0 1
vn 0 1 0
vn 0 -1 0
vn 0 -0.96592581272125248 -0.25881901383399964
vn 0 -0.70710694789886472 -0.70710659027099608
vn 0 -0.25881880521774292 -0.96592587232589728
vn 0 -0.96592581272125248 0.25881901383399964
vn 0 -0.70710694789886472 0.70710659027099608
vn 0 -0.25881880521774292 0.96592587232589728
vn 0 0.96592587232589728 -0.25881880521774292
vn 0 0.70710766315460208 -0.7071058750152588
vn 0 0.25881832838058472 -0.96592599153518672
vn 0 0.96592587232589728 0.25881880521774292
vn 0 0.70710766315460208 0.7071058750152588
vn 0 0.25881832838058472 0.96592599153518672
vn 0 0.12053675204515458 0.9927088618278504
vn 0 -0.12053670734167098 0.9927088618278504
vn 0 0.46472316980361936 0.88545602560043328
vn 0 0.82298380136489872 0.5680648684501648
vn 0 0.9927088618278504 0.1205366998910904
vn -0.02858025394380092 0.97080075740814208 0.23817861080169676
vn -0.00721350871026516 0.9982135891914368 0.05930892750620842
vn -6.460778968175873E-05 0.99823957681655888 -0.05931046977639198
vn 0 -0.46472311019897464 0.88545602560043328
vn 0 -0.82298386096954352 0.56806474924087528
vn 0 -0.9927088618278504 0.1205366849899292
vn 0 -0.93501627445220944 -0.35460487008094788
vn 0 -0.66312265396118168 -0.74851071834564208
vn 0 -0.23931553959846496 -0.97094184160232544
vn 0 0.23931556940078736 -0.97094184160232544
vn 0 0.66312265396118168 -0.74851071834564208
vn 0 0.93501627445220944 -0.35460481047630312
vn 0 0.9928404092788696 -0.11944860219955444
vn 0.6997719407081604 0 -0.71436631679534912
vn 0.4436528980731964 0 -0.89619868993759152
vn 0.19973146915435792 0 -0.9798506498336792
vn -0.03313707560300827 0 -0.99945080280303952
vn -0.2680179178714752 0 -0.963413953781128
vn -0.51641768217086792 0 -0.8563368320465088
vn -0.7711299061775208 0 -0.63667786121368408
vn -0.96571218967437744 0 -0.25961506366729736
vn -0.97656762599945072 0 0.21521069109439848
vn -0.79450404644012448 0 0.60725885629653928
vn -0.54135024547576904 0 0.8407971858978272
vn -0.29146200418472292 0 0.95658242702484128
vn -0.05565707013010979 0 0.9984499216079712
vn 0.17678365111351014 0 0.98424971103668208
vn 0.41922771930694584 0 0.90788114070892336
vn 0.67499250173568728 0 0.73782455921173088
vn 0.81044286489486688 0 0.58581769466400144
# 53 vertex normals

g obj_17103299
s 1
f 1//1 2//1 3//1
f 3//1 2//1 4//1
f 5//1 2//1 6//1
f 6//1 2//1 1//1
f 6//1 1//1 7//1
f 7//1 1//1 8//1
f 7//1 8//1 9//1
f 10//1 11//1 12//1
f 12//1 11//1 13//1
f 14//1 12//1 15//1
f 15//1 12//1 13//1
f 15//1 13//1 16//1
f 16//1 13//1 17//1
f 16//1 17//1 18//1
f 19//2 20//2 21//2
f 21//2 20//2 22//2
f 23//2 24//2 25//2
f 25//2 24//2 20//2
f 25//2 20//2 26//2
f 26//2 20//2 19//2
f 26//2 19//2 27//2
f 27//2 19//2 28//2
f 29//2 30//2 31//2
f 31//2 30//2 21//2
f 31//2 21//2 32//2
f 32//2 21//2 22//2
f 32//2 22//2 33//2
f 33//2 22//2 34//2
f 12//3 25//3 10//3
f 10//3 25//3 26//3
f 10//3 26//3 35//3
f 36//1 10//1 35//1
f 37//1 38//1 39//1
f 40//1 41//1 42//1
f 36//1 35//1 43//1
f 44//1 40//1 45//1
f 45//1 40//1 42//1
f 45//1 42//1 46//1
f 46//1 42//1 9//1
f 35//1 37//1 43//1
f 43//1 37//1 39//1
f 43//1 39//1 47//1
f 47//1 39//1 44//1
f 47//1 44//1 48//1
f 48//1 44//1 45//1
f 42//4 31//4 9//4
f 9//4 31//4 32//4
f 9//4 32//4 7//4
f 2//5 22//5 4//5
f 4//5 22//5 20//5
f 4//5 20//5 18//5
f 18//5 20//5 16//5
f 19//6 21//6 39//6
f 39//6 21//6 44//6
f 49//7 50//7 38//7
f 49//7 38//7 28//7
f 28//8 38//8 37//8
f 28//8 37//8 27//8
f 27//9 37//9 35//9
f 27//9 35//9 26//9
f 51//10 52//10 30//10
f 51//10 30//10 40//10
f 40//11 30//11 29//11
f 40//11 29//11 41//11
f 41//12 29//12 31//12
f 41//12 31//12 42//12
f 16//13 20//13 24//13
f 16//13 24//13 15//13
f 15//14 24//14 23//14
f 15//14 23//14 14//14
f 14//15 23//15 25//15
f 14//15 25//15 12//15
f 22//16 2//16 5//16
f 22//16 5//16 34//16
f 34//17 5//17 6//17
f 34//17 6//17 33//17
f 33//18 6//18 7//18
f 33//18 7//18 32//18
f 53//19 54//19 9//19
f 9//20 54//20 46//20
f 9//19 8//19 53//19
f 53//21 8//21 1//21
f 53//21 1//21 55//21
f 55//22 1//22 3//22
f 55//22 3//22 56//22
f 56//23 3//23 57//23
f 3//24 4//24 57//24
f 57//25 4//25 58//25
f 57//26 58//26 18//26
f 54//20 59//20 46//20
f 46//27 59//27 60//27
f 46//27 60//27 45//27
f 45//28 60//28 61//28
f 45//28 61//28 48//28
f 48//29 61//29 62//29
f 48//29 62//29 47//29
f 47//30 62//30 63//30
f 47//30 63//30 43//30
f 43//31 63//31 64//31
f 43//31 64//31 36//31
f 36//32 64//32 65//32
f 36//32 65//32 10//32
f 10//33 65//33 66//33
f 10//33 66//33 11//33
f 11//34 66//34 67//34
f 11//34 67//34 13//34
f 13//35 67//35 57//35
f 13//35 57//35 17//35
f 17//36 57//36 18//36
f 68//1 66//1 65//1
f 69//1 70//1 60//1
f 68//1 65//1 71//1
f 53//1 55//1 54//1
f 54//1 55//1 69//1
f 54//1 69//1 59//1
f 59//1 69//1 60//1
f 61//1 60//1 62//1
f 62//1 60//1 70//1
f 62//1 70//1 63//1
f 63//1 70//1 71//1
f 63//1 71//1 64//1
f 64//1 71//1 65//1
f 55//1 56//1 69//1
f 69//1 56//1 57//1
f 69//1 57//1 68//1
f 68//1 57//1 67//1
f 68//1 67//1 66//1
f 18//2 72//2 4//2
f 68//37 71//37 73//37
f 68//37 73//37 74//37
f 74//38 73//38 75//38
f 74//38 75//38 76//38
f 76//39 75//39 77//39
f 76//39 77//39 78//39
f 78//40 77//40 79//40
f 78//40 79//40 80//40
f 80//41 79//41 81//41
f 80//41 81//41 82//41
f 82//42 81//42 83//42
f 82//42 83//42 84//42
f 84//43 83//43 85//43
f 84//43 85//43 86//43
f 86//44 85//44 87//44
f 86//44 87//44 88//44
f 88//45 87//45 89//45
f 88//45 89//45 90//45
f 90//46 89//46 91//46
f 90//46 91//46 92//46
f 92//47 91//47 93//47
f 92//47 93//47 94//47
f 94//48 93//48 95//48
f 94//48 95//48 96//48
f 96//49 95//49 97//49
f 96//49 97//49 98//49
f 98//50 97//50 99//50
f 98//50 99//50 100//50
f 100//51 99//51 101//51
f 100//51 101//51 102//51
f 102//52 101//52 103//52
f 102//52 103//52 104//52
f 104//53 103//53 70//53
f 104//53 70//53 69//53
f 76//5 78//5 104//5
f 104//5 78//5 80//5
f 104//5 80//5 102//5
f 102//5 80//5 100//5
f 69//5 68//5 104//5
f 104//5 68//5 74//5
f 104//5 74//5 76//5
f 88//5 90//5 86//5
f 86//5 90//5 92//5
f 86//5 92//5 84//5
f 84//5 92//5 94//5
f 84//5 94//5 82//5
f 82//5 94//5 96//5
f 82//5 96//5 80//5
f 80//5 96//5 98//5
f 80//5 98//5 100//5
f 77//6 103//6 79//6
f 79//6 103//6 101//6
f 79//6 101//6 99//6
f 71//6 70//6 73//6
f 73//6 70//6 103//6
f 73//6 103//6 75//6
f 75//6 103//6 77//6
f 91//6 89//6 87//6
f 99//6 97//6 79//6
f 79//6 97//6 95//6
f 79//6 95//6 81//6
f 81//6 95//6 93//6
f 81//6 93//6 83//6
f 83//6 93//6 91//6
f 83//6 91//6 85//6
f 85//6 91//6 87//6
#194 polygons

